<?xml version="1.0" standalone="no"?>
<!DOCTYPE svg PUBLIC "-//W3C//DTD SVG 20010904//EN"
 "http://www.w3.org/TR/2001/REC-SVG-20010904/DTD/svg10.dtd">
<svg version="1.0" xmlns="http://www.w3.org/2000/svg"
 width="300.000000pt" height="300.000000pt" viewBox="0 0 300.000000 300.000000"
 preserveAspectRatio="xMidYMid meet">
<metadata>
Created by potrace 1.11, written by Peter Selinger 2001-2013
</metadata>
<g transform="translate(0.000000,300.000000) scale(0.100000,-0.100000)"
fill="#000000" stroke="none">
<path d="M1350 2994 c-267 -32 -479 -106 -675 -234 -339 -222 -559 -547 -647
-954 -29 -135 -31 -415 -5 -551 104 -529 461 -950 957 -1130 201 -72 477 -103
685 -76 318 42 606 179 834 396 315 300 478 707 458 1140 -11 221 -54 391
-151 590 -137 281 -381 527 -666 670 -98 49 -255 101 -377 125 -103 20 -336
33 -413 24z m430 -68 c296 -69 511 -186 715 -391 209 -208 339 -450 402 -745
25 -121 25 -421 0 -540 -67 -310 -198 -551 -415 -762 -164 -159 -341 -269
-547 -337 -167 -55 -241 -66 -455 -66 -151 0 -214 4 -280 18 -276 59 -512 184
-712 376 -176 168 -298 360 -372 582 -50 151 -68 246 -73 404 -18 483 195 924
589 1216 181 134 402 225 643 264 134 22 369 13 505 -19z"/>
<path d="M1040 2538 c-128 -88 -178 -483 -94 -749 19 -62 35 -90 68 -124 37
-39 48 -45 84 -45 117 0 194 183 194 465 0 167 -19 272 -65 365 -51 103 -118
134 -187 88z"/>
<path d="M1833 2539 c-77 -49 -133 -238 -133 -449 0 -196 41 -359 109 -431 33
-33 44 -39 80 -39 55 0 89 25 124 89 58 105 83 255 74 435 -10 193 -51 322
-122 384 -43 38 -85 41 -132 11z"/>
<path d="M2435 1503 c-70 -8 -76 -12 -73 -46 3 -30 6 -32 47 -35 l44 -3 -7
-63 c-25 -246 -174 -483 -399 -635 -76 -52 -209 -110 -315 -138 -84 -23 -117
-26 -252 -26 -135 0 -168 3 -252 26 -283 75 -509 252 -630 492 -36 70 -75 200
-84 273 l-7 62 42 0 c36 0 41 3 47 27 10 40 -16 53 -106 53 -101 0 -165 -29
-165 -75 0 -27 3 -30 30 -29 17 0 37 4 46 8 13 6 18 -7 28 -75 37 -240 163
-461 352 -613 102 -82 288 -176 406 -206 277 -69 538 -43 788 80 311 151 513
420 557 739 6 47 13 88 15 90 1 2 9 -2 17 -8 32 -27 87 6 73 43 -13 34 -125
67 -202 59z"/>
</g>
</svg>
