<?xml version="1.0" standalone="no"?>
<!DOCTYPE svg PUBLIC "-//W3C//DTD SVG 20010904//EN"
 "http://www.w3.org/TR/2001/REC-SVG-20010904/DTD/svg10.dtd">
<svg version="1.0" xmlns="http://www.w3.org/2000/svg"
 width="500.000000pt" height="500.000000pt" viewBox="0 0 500.000000 500.000000"
 preserveAspectRatio="xMidYMid meet">
<metadata>
Created by potrace 1.11, written by Peter Selinger 2001-2013
</metadata>
<g transform="translate(0.000000,500.000000) scale(0.100000,-0.100000)"
fill="#000000" stroke="none">
<path d="M2105 4450 c-38 -14 -58 -48 -57 -95 0 -45 10 -63 49 -83 39 -21 104
-10 125 22 13 20 -4 27 -28 12 -31 -21 -77 -20 -97 2 -28 31 -20 37 50 40 77
4 83 6 83 32 0 47 -75 89 -125 70z m82 -47 c7 -9 12 -18 10 -19 -1 -2 -28 -5
-60 -8 -46 -5 -57 -3 -57 8 0 42 79 55 107 19z"/>
<path d="M1832 4418 c-27 -14 -39 -53 -22 -73 7 -9 32 -20 56 -26 32 -8 44
-16 44 -30 0 -23 -46 -36 -71 -21 -13 8 -20 8 -25 1 -18 -29 64 -49 101 -25
48 31 32 89 -28 101 -45 10 -60 24 -46 41 14 17 41 18 56 3 8 -8 13 -7 18 2 9
14 -20 39 -44 38 -9 0 -26 -5 -39 -11z"/>
<path d="M1565 4358 c-26 -14 -46 -39 -39 -50 3 -4 17 1 31 12 26 20 49 25 77
14 28 -11 17 -31 -20 -37 -46 -8 -74 -33 -74 -67 0 -55 64 -78 112 -40 18 14
28 16 36 8 34 -34 9 115 -26 155 -17 19 -66 22 -97 5z m105 -104 c0 -40 -81
-73 -94 -38 -11 27 -7 35 25 48 36 15 69 10 69 -10z"/>
<path d="M1297 4267 c-37 -21 -47 -40 -47 -93 0 -62 87 -108 145 -76 36 18 60
51 47 64 -8 8 -17 3 -34 -16 -27 -31 -80 -38 -105 -14 -13 14 -8 19 56 44 75
31 86 47 52 78 -34 31 -74 36 -114 13z m83 -32 c10 -12 6 -17 -23 -28 -66 -28
-77 -30 -77 -11 0 44 72 73 100 39z"/>
<path d="M1052 4237 c2 -8 25 -62 53 -120 36 -78 54 -107 67 -107 17 0 17 3 5
33 -40 92 -103 207 -115 207 -7 0 -12 -6 -10 -13z"/>
<path d="M3842 4224 c-28 -19 -32 -30 -87 -219 -54 -190 -113 -440 -114 -492
-1 -19 -9 -23 -58 -29 -32 -4 -144 -8 -249 -8 l-192 -1 -21 -25 c-31 -38 -28
-95 8 -131 28 -27 34 -29 118 -30 136 -1 312 2 335 6 19 4 20 1 13 -63 -13
-112 -9 -243 10 -327 11 -44 19 -82 20 -85 10 -50 90 -176 149 -236 81 -80
218 -154 286 -154 32 0 79 37 81 62 0 7 2 20 4 29 7 39 -22 75 -81 99 -198 78
-298 249 -288 490 3 92 16 196 26 205 2 2 22 7 44 11 208 31 575 160 645 225
34 31 38 71 12 109 -42 61 -76 64 -171 16 -125 -63 -334 -132 -455 -151 -45
-8 -45 -12 -11 136 14 63 27 121 29 129 9 42 39 155 65 240 41 137 42 150 4
185 -32 29 -88 33 -122 9z"/>
<path d="M858 4050 c-16 -16 -36 -30 -44 -30 -8 0 -14 -4 -14 -10 0 -11 106
-187 126 -209 25 -27 28 15 4 49 -18 25 -19 30 -6 30 26 0 30 1 58 22 56 39
52 123 -6 159 -45 28 -82 24 -118 -11z m107 -25 c31 -30 32 -68 3 -95 -28 -26
-56 -25 -85 2 -29 27 -30 71 -3 98 27 27 56 25 85 -5z"/>
<path d="M2403 3855 c-96 -22 -191 -101 -241 -200 -78 -156 -65 -394 34 -599
l24 -50 -45 -57 c-61 -77 -93 -145 -111 -232 -44 -207 48 -388 233 -463 73
-29 102 -34 184 -35 115 0 235 42 333 117 39 30 52 35 65 26 87 -60 165 -100
189 -96 36 7 69 40 77 76 12 51 -11 85 -87 130 -37 22 -70 44 -73 48 -3 4 4
34 15 66 50 143 11 314 -98 432 -65 71 -128 78 -177 20 -36 -42 -32 -69 21
-130 68 -79 78 -103 79 -185 0 -39 -3 -75 -7 -79 -4 -4 -33 13 -65 37 -66 50
-265 245 -281 276 -10 19 -5 26 51 74 284 241 370 417 297 611 -60 161 -240
253 -417 213z m165 -199 c59 -31 99 -110 87 -176 -13 -76 -96 -178 -240 -297
l-50 -42 -13 25 c-44 84 -66 279 -41 363 15 50 70 117 113 136 37 17 102 13
144 -9z m-115 -955 c45 -46 116 -111 157 -144 41 -33 75 -65 75 -71 0 -26
-135 -80 -200 -80 -92 -1 -180 43 -216 108 -44 78 -28 214 35 299 l21 28 23
-28 c13 -15 60 -66 105 -112z"/>
<path d="M4767 3719 c-11 -6 -25 -26 -33 -44 -12 -29 -12 -39 2 -77 23 -65 63
-233 69 -297 4 -31 8 -67 11 -81 5 -32 6 -269 0 -295 -2 -11 -7 -49 -11 -85
-4 -35 -20 -115 -36 -177 -142 -561 -583 -1015 -1145 -1178 -153 -44 -256 -59
-434 -59 -185 -1 -239 4 -405 38 -153 32 -423 156 -575 264 -53 38 -154 126
-231 204 -97 97 -141 136 -155 133 -10 -2 -25 -4 -32 -4 -24 -2 -62 -49 -62
-78 0 -15 9 -43 21 -62 30 -50 201 -218 294 -290 44 -34 85 -66 92 -71 7 -6
14 -10 17 -10 3 0 24 -13 48 -29 172 -115 432 -212 688 -256 143 -25 409 -25
570 1 68 10 239 53 306 77 375 131 712 391 918 707 30 47 59 90 63 95 14 17
113 223 129 268 30 83 72 224 78 263 4 21 8 46 11 54 33 115 40 483 11 626 -2
12 -7 39 -10 60 -10 61 -54 223 -72 259 -23 49 -83 69 -127 44z"/>
<path d="M1268 3486 c-1 -2 -31 -6 -64 -10 -142 -15 -294 -94 -415 -215 -180
-181 -349 -512 -425 -829 -9 -40 -21 -75 -25 -78 -9 -5 -146 60 -169 81 -30
27 -82 43 -110 34 -49 -18 -74 -88 -49 -142 13 -29 158 -118 242 -149 l58 -21
-7 -61 c-3 -34 -8 -72 -10 -86 -6 -36 -5 -307 1 -360 34 -293 83 -491 132
-530 37 -29 86 -26 123 8 39 34 40 65 7 157 -26 73 -52 184 -61 270 -15 132
-17 164 -18 259 0 55 3 139 7 186 4 47 8 91 8 98 0 10 8 12 26 7 44 -10 313
-14 381 -5 161 22 282 56 409 116 254 120 423 315 477 554 14 58 12 240 -2
301 -32 138 -143 284 -265 349 -69 37 -105 48 -174 56 -27 3 -55 7 -62 9 -6 2
-13 2 -15 1z m137 -216 c86 -37 170 -140 193 -237 12 -50 7 -207 -7 -258 -75
-260 -365 -453 -736 -491 -100 -10 -302 -1 -318 15 -17 17 69 288 142 446 143
310 294 475 491 533 79 24 167 21 235 -8z"/>
<path d="M4780 1399 c0 -6 20 -29 44 -51 54 -47 64 -72 40 -99 -17 -19 -59
-26 -66 -11 -1 4 -23 24 -47 46 -34 30 -45 35 -52 25 -10 -16 69 -95 109 -110
30 -11 78 12 88 43 4 13 14 29 23 35 14 11 8 20 -49 73 -63 58 -90 73 -90 49z"/>
<path d="M4544 1169 c-30 -15 -52 -59 -49 -97 6 -68 82 -110 143 -78 38 20 52
44 54 92 3 69 -81 115 -148 83z m104 -46 c33 -46 -16 -122 -69 -108 -29 7 -58
51 -53 78 1 10 11 28 21 39 22 24 80 19 101 -9z"/>
<path d="M4364 986 c4 -29 9 -63 11 -75 5 -29 0 -27 -61 19 -55 41 -69 47 -78
31 -4 -5 27 -33 66 -62 40 -28 75 -53 77 -55 2 -2 5 -18 6 -35 1 -24 -3 -33
-17 -37 -10 -2 -17 -9 -15 -15 11 -35 68 6 62 45 -2 13 -7 55 -11 93 -4 39 -8
79 -10 90 -1 11 -3 28 -3 38 -1 9 -8 17 -17 17 -13 0 -15 -9 -10 -54z"/>
<path d="M3850 878 c0 -28 76 -240 85 -239 6 1 10 16 11 34 0 17 1 37 2 44 1
8 21 0 52 -19 36 -22 54 -28 61 -21 8 8 -4 20 -38 44 -26 18 -49 33 -51 35 -2
1 8 25 23 54 22 44 24 51 9 48 -9 -1 -31 -30 -48 -62 l-31 -59 -23 76 c-15 50
-28 77 -38 77 -7 0 -14 -6 -14 -12z"/>
<path d="M2839 810 c-1 -5 -3 -14 -4 -20 -1 -5 -3 -14 -4 -20 0 -5 -8 -7 -16
-4 -9 4 -15 0 -15 -10 0 -9 5 -16 11 -16 8 0 9 -13 4 -42 -17 -101 -17 -106 9
-123 28 -18 57 -17 64 3 2 7 -6 12 -22 12 -13 0 -27 3 -30 8 -2 4 1 34 8 67
12 59 12 60 44 57 26 -3 31 0 26 12 -3 9 -17 16 -29 16 -21 0 -23 3 -18 35 4
28 2 35 -11 35 -9 0 -17 -4 -17 -10z"/>
<path d="M3029 793 c0 -10 -2 -26 -4 -35 -2 -9 -6 -62 -9 -117 -6 -87 -5 -101
9 -101 8 0 15 6 16 13 5 64 9 95 13 113 7 26 48 39 77 23 18 -9 20 -18 17 -80
-3 -60 -1 -69 15 -69 17 0 19 8 20 103 0 63 -49 99 -107 77 -22 -8 -22 -6 -19
41 2 38 -1 49 -12 49 -8 0 -15 -8 -16 -17z"/>
<path d="M3642 754 c-12 -8 -27 -12 -32 -9 -20 12 -28 -5 -20 -42 5 -21 11
-49 13 -63 12 -63 19 -79 34 -73 10 4 13 13 8 32 -18 71 -18 114 1 128 45 33
76 8 94 -77 8 -35 17 -59 24 -57 16 6 11 64 -9 133 -7 22 -43 44 -73 44 -10 0
-28 -7 -40 -16z"/>
<path d="M3338 718 c-16 -5 -28 -16 -28 -24 0 -17 11 -18 44 -3 31 15 72 5 78
-19 5 -16 -1 -18 -44 -18 -41 1 -53 -3 -69 -23 -19 -24 -18 -51 3 -78 13 -16
90 -17 105 -2 8 8 13 8 17 0 18 -29 27 -6 24 62 -2 59 -6 76 -25 95 -24 24
-59 27 -105 10z m91 -97 c17 -11 -1 -47 -29 -56 -46 -14 -79 22 -48 53 14 14
57 16 77 3z"/>
</g>
</svg>
