<?xml version="1.0" encoding="UTF-8"?>
<svg width="30px" height="30px" viewBox="0 0 30 30" version="1.1" xmlns="http://www.w3.org/2000/svg" xmlns:xlink="http://www.w3.org/1999/xlink">
    <title>Acid_Smiley</title>
    <g id="Page-1" stroke="none" stroke-width="1" fill="none" fill-rule="evenodd">
        <g id="3-Mobile-Contact" transform="translate(-332.000000, -1160.000000)" fill-rule="nonzero">
            <g id="Newsletter" transform="translate(36.000000, 1150.000000)">
                <g id="Acid_Smiley" transform="translate(296.000000, 10.000000)">
                    <g id="Face">
                        <circle id="Oval" fill="#F6EB13" cx="14.805465" cy="14.8200317" r="14.6134067"></circle>
                        <path d="M29.2288717,14.8200317 C29.224565,17.6809883 28.3718767,20.48732 26.7794233,22.8643783 C25.23371,25.1717067 23.01375,26.99463 20.4655333,28.09207 C17.8122467,29.2347617 14.8094867,29.52771 11.9795317,28.9671467 C9.22906,28.4223533 6.677835,27.0560317 4.680175,25.0919383 C2.68292667,23.1281933 1.29469167,20.5928017 0.702018333,17.85677 C0.0885716667,15.024915 0.364166667,12.0289317 1.45495667,9.34765167 C2.49900667,6.781195 4.31664167,4.54255167 6.58923167,2.963335 C8.93129833,1.33585833 11.7325,0.445265 14.58212,0.398303333 C17.44428,0.35112 20.276895,1.17283833 22.6762467,2.73118667 C25.0049817,4.24368167 26.85916,6.43545833 27.9932383,8.96727167 C28.8151783,10.8022283 29.2258633,12.8117317 29.2288717,14.8200317 C29.2292517,15.0650683 29.6092517,15.0651 29.608872,14.8200317 C29.604565,11.952425 28.7690083,9.12386333 27.19964,6.72258 C25.6773917,4.39340167 23.4938167,2.51522 20.9649167,1.35599833 C18.3191033,0.143165 15.3475033,-0.245543333 12.474545,0.200291667 C9.68753,0.632763333 7.062205,1.89870167 4.956245,3.76884 C2.86526333,5.62564667 1.331045,8.08085833 0.563413333,10.76825 C-0.235251667,13.5642583 -0.176415,16.593365 0.71155,19.3603983 C1.56484,22.0194167 3.19048,24.40873 5.33368,26.1959967 C7.51222,28.0127133 10.1862483,29.1618017 12.99904,29.5128267 C15.8735817,29.8715783 18.8276383,29.3559183 21.4191433,28.06699 C23.9097267,26.8282533 26.01993,24.867295 27.4665583,22.494575 C28.8704367,20.191965 29.604755,17.5141683 29.608872,14.8200317 C29.60922,14.5749633 29.22922,14.574995 29.2288717,14.8200317 Z" id="Path" fill="#000000"></path>
                    </g>
                    <ellipse id="L_Eye" stroke="#000000" stroke-width="0.78" fill="#000000" cx="10.99872" cy="9.12364167" rx="1.58333333" ry="4.33469167"></ellipse>
                    <ellipse id="R_Eye" stroke="#000000" stroke-width="0.78" fill="#000000" cx="18.9413533" cy="9.12364167" rx="1.58333333" ry="4.33469167"></ellipse>
                    <g id="Mouth" transform="translate(4.180000, 15.073333)" fill="#000000">
                        <path d="M20.34805,0.458343333 C20.347195,0.812123333 20.3261367,1.16492167 20.2844633,1.51623167 C20.279555,1.55784167 20.2740133,1.59942 20.2684717,1.64096667 C20.2806,1.54995667 20.2611567,1.68631333 20.2601433,1.69264667 C20.2476033,1.77510667 20.2332267,1.85721833 20.21828,1.939235 C20.186075,2.11599833 20.14722,2.29146333 20.1041533,2.46588333 C20.0220417,2.7987 19.91808,3.12588 19.797715,3.44675833 C19.7689933,3.52342333 19.738625,3.59948667 19.70775,3.67536 C19.6568933,3.80034833 19.7412217,3.59761833 19.688085,3.72159333 C19.6719667,3.75918167 19.6553733,3.79651667 19.6387167,3.83388333 C19.56677,3.99563667 19.4889333,4.15473 19.40755,4.311955 C19.2511167,4.61427667 19.0756517,4.90652833 18.8866333,5.189565 C18.7957183,5.32563667 18.70037,5.4587 18.6024567,5.58983167 C18.521675,5.69803667 18.6544533,5.52304667 18.57174,5.62989 C18.54666,5.662285 18.5211367,5.69436333 18.495645,5.72647333 C18.43608,5.80142833 18.3749,5.87505333 18.3130867,5.94817167 C18.09142,6.21040333 17.85411,6.459145 17.60597,6.69636 C17.486175,6.81086667 17.36277,6.92157333 17.2374017,7.029905 C17.1745117,7.084245 17.1105767,7.13741333 17.0463567,7.19017 C17.0141517,7.21661167 16.9816617,7.24261 16.9492033,7.26864 C16.9274483,7.28596167 16.9056617,7.30318833 16.8838117,7.32035167 C16.9197217,7.29245333 16.9169667,7.29444833 16.8755783,7.326305 C16.3173583,7.75453333 15.71224,8.12025167 15.078685,8.42548667 C14.9241833,8.499935 14.767465,8.56960167 14.6095433,8.636355 C14.69783,8.59902 14.5665083,8.65332833 14.5599533,8.65598833 C14.5199267,8.67213833 14.4797417,8.68781333 14.4394933,8.70345667 C14.34538,8.740095 14.2505383,8.77483333 14.1554117,8.80874833 C13.81205,8.93126667 13.4618483,9.03393 13.1078467,9.12076 C12.3442367,9.30803667 11.730885,9.38558833 10.9524867,9.409655 C10.56856,9.42153 10.184095,9.411365 9.801055,9.38372 C9.62004833,9.37064167 9.43951667,9.35202167 9.25939667,9.330045 C9.259745,9.33007667 9.11309667,9.31082333 9.19463833,9.32212833 C9.15014667,9.31595333 9.10575,9.30924 9.06135333,9.30252667 C8.95815167,9.286915 8.85533,9.26915 8.75260333,9.25056167 C8.03411833,9.12060167 7.33013667,8.91359667 6.65326167,8.64040833 C6.65072833,8.639395 6.52019833,8.58483333 6.59889,8.61808333 C6.55930667,8.601395 6.51997667,8.58416833 6.480615,8.56697333 C6.40211333,8.53264667 6.324245,8.49686333 6.24659833,8.46063667 C6.07920833,8.382515 5.91444667,8.29897833 5.75145833,8.21205333 C5.440935,8.04646833 5.14000667,7.86327667 4.848135,7.66681667 C4.70918167,7.573305 4.57314167,7.47551833 4.43900167,7.37523 C4.32889667,7.29289667 4.50512167,7.42665667 4.396505,7.34261333 C4.36354,7.31712167 4.33089167,7.29121833 4.29824333,7.265315 C4.22221167,7.20495833 4.14744667,7.14305 4.07322,7.08050833 C3.80953167,6.858335 3.55885833,6.62096167 3.319965,6.37247333 C3.20590167,6.25381833 3.09563833,6.131585 2.98778167,6.00726167 C2.93398,5.94525833 2.88138167,5.88221 2.829195,5.81881333 C2.80310167,5.78714667 2.77745167,5.75516333 2.75180167,5.72314833 C2.734765,5.701805 2.71779167,5.68036667 2.700945,5.658865 C2.72954,5.695725 2.72798833,5.69357167 2.69629,5.652405 C2.48887333,5.38200333 2.297955,5.099125 2.12141333,4.80772833 C1.92387667,4.481625 1.74891833,4.14206333 1.594005,3.79379333 C1.57738,3.75642667 1.56126167,3.71887 1.545175,3.68125 C1.52443333,3.63219833 1.52392667,3.63102667 1.54368667,3.67776667 C1.53333167,3.65249667 1.523135,3.627195 1.51300167,3.60189333 C1.47737667,3.51316333 1.44377833,3.42367333 1.41106667,3.333835 C1.34070333,3.140795 1.27844667,2.94487333 1.22173167,2.74736833 C1.11488833,2.37515833 1.03546833,1.99538 0.97888,1.61240333 C0.977518333,1.60322 0.958993333,1.46607167 0.971596667,1.56433333 C0.964471667,1.50879 0.958296667,1.45312 0.952216667,1.39741833 C0.941576667,1.29956833 0.93328,1.201465 0.925933333,1.10329833 C0.910036667,0.890846667 0.903418333,0.677761667 0.90288,0.464771667 C0.902278333,0.223281667 0.705786667,0.01976 0.46265,0.0181036346 C0.222775,0.01653 0.0154216667,0.216821667 0.0160220272,0.458375 C0.0229583333,3.32905333 1.393745,6.03892833 3.60974667,7.843485 C5.95064167,9.749755 9.04799,10.5884783 12.03631,10.2112333 C14.9752933,9.840195 17.6846933,8.33346333 19.4434917,5.93442833 C20.5994517,4.35768167 21.2302517,2.41851 21.2349397,0.46474 C21.23554,0.223218333 21.03699,0.0197283333 20.7947083,0.0181036346 C20.553915,0.0164983333 20.3486517,0.21679 20.34805,0.458343333 L20.34805,0.458343333 Z" id="Path"></path>
                    </g>
                    <g id="L_Dimple" transform="translate(3.166667, 15.041667)" fill="#000000">
                        <path d="M0.682543333,1.07011167 C0.524305,1.19877333 0.68685,1.07267667 0.737105,1.04303667 C0.78717,1.01346 0.839166667,0.987335 0.891701667,0.96254 C0.995948333,0.913266667 0.846038333,0.979006667 0.918681667,0.950158333 C0.95665,0.935085 0.995283333,0.921848333 1.03398,0.908865 C1.122425,0.879193333 1.21315,0.8569 1.30441333,0.837836667 C1.31784,0.835018333 1.46319,0.811331667 1.39447333,0.820135 C1.45109333,0.812883333 1.50803,0.808925 1.56496667,0.805346667 C1.821435,0.789386667 2.07366,0.817348333 2.32325667,0.875013333 C2.53352333,0.92359 2.75082,0.811743333 2.809625,0.597676667 C2.86504167,0.395991667 2.74230167,0.159821667 2.53228833,0.111308333 C1.73406667,-0.0731183333 0.781533333,-0.024985 0.119668333,0.51319 C-0.047785,0.649388333 -0.0182083333,0.933945 0.122676667,1.07308833 C0.288356667,1.23674167 0.515121667,1.20624667 0.682543333,1.07011167 L0.682543333,1.07011167 Z" id="Path"></path>
                    </g>
                    <g id="R_Dimple" transform="translate(23.560000, 14.946667)" fill="#000000">
                        <path d="M2.70325667,0.499795 C2.04389333,-0.0363216667 1.089935,-0.0830933333 0.295703333,0.100415 C-0.202255,0.215491667 0.00433833333,0.979798333 0.500618333,0.865101667 C0.963743333,0.7581 1.372275,0.764401667 1.789895,0.897971667 C1.82878167,0.910416667 1.86706667,0.924666667 1.90519333,0.939233333 C1.97451167,0.965675 1.83641333,0.907535 1.936765,0.95342 C1.98961667,0.977613333 2.04101167,1.00494167 2.09136167,1.03394833 C2.14525833,1.06495 2.29162167,1.180755 2.14639833,1.06267 C2.31344,1.19848833 2.54353,1.224455 2.70629667,1.05966167 C2.84673833,0.917415 2.87102667,0.636215 2.70325667,0.499795 L2.70325667,0.499795 Z" id="Path"></path>
                    </g>
                </g>
            </g>
        </g>
    </g>
</svg>